# xmcd
#
# Track frame offsets:
#	150
#	18612
#	34826
#	50987
#	69494
#	88858
#	103752
#	121981
#	136109
#	151898
#	165565
#	185739
#	202414
#	216854
#	232864
#	246953
#	267274
#	282732
#	298256
#
# Disc length: 4173 seconds
#
# Revision: 1
# Processed by: cddbd v1.5.2PL0 Copyright (c) Steve Scherf et al.
# Submitted via: audiograbber 1.83.01
#
DISCID=2f104b13
DTITLE=Various Artist - Hott Country 178
DYEAR=2010
DGENRE=Country
TTITLE0=George Canyon - Better Be Home Soon
TTITLE1=Darius Rucker - This
TTITLE2=Melissa Rae Barrie - Passenger Window
TTITLE3=Taylor Swift - Back To December ( Radio Edit )
TTITLE4=Brad Paisley - This Is Country Music ( Radio Edit )
TTITLE5=Aaron Lines - These Are Those Days
TTITLE6=Easton Corbin - I Can't Love You Back
TTITLE7=Gord Bamford - My Daughter's Father
TTITLE8=Josh Turner - I Wouldn't Be A Man
TTITLE9=Josh Kelley - Georgia Clay
TTITLE10=Sugarland - Little Miss
TTITLE11=Jason Aldean Feat Kelly Clarkson  - Don't You Want To Stay ( Radio Edi
TTITLE11=t )
TTITLE12=Crystal Shawanda - Fight For Me
TTITLE13=Sunny Sweeney - From A Table Away
TTITLE14=Alan Jackson - Ring Of Fire
TTITLE15=Various Artist - Standing Strong
TTITLE16=Josh Thompson - Won't Be Lonely Long
TTITLE17=Chuck Wicks - Old School
TTITLE18=Lee Greenwood - God Bless Canada ( 1989 )
EXTD=December 2010
EXTT0=
EXTT1=
EXTT2=
EXTT3=
EXTT4=
EXTT5=
EXTT6=
EXTT7=
EXTT8=
EXTT9=
EXTT10=
EXTT11=
EXTT12=
EXTT13=
EXTT14=
EXTT15=
EXTT16=
EXTT17=
EXTT18=
PLAYORDER=
